<svg version="1.2" xmlns="http://www.w3.org/2000/svg" viewBox="0 0 1541 251" width="1541" height="251">
	<title>ihg_secondary_horizontal_logo_black_rgb_5-svg</title>
	<defs>
		<clipPath clipPathUnits="userSpaceOnUse" id="cp1">
			<path d="m425.31 0.1h219v250.12h-219z"/>
		</clipPath>
		<clipPath clipPathUnits="userSpaceOnUse" id="cp2">
			<path d="m1455.06 3.02h85.53v92.45h-85.53z"/>
		</clipPath>
	</defs>
	<style>
		.s0 { fill: #000000 } 
	</style>
	<g id="Header-Phase-1">
		<g id="Header_Large_1008px_alt">
			<g id="Primary">
				<g id="IHG-Logo-Secondary-Horizontal">
					<g id="Group-38">
						<path id="Fill-1" class="s0" d="m348.3 4.2h-36.5v106.4h-132v-106.4h-36.2v242h36.2v-110.6h132v110.6h36.5z"/>
						<path id="Fill-2" class="s0" d="m0 4.2h36.2v242h-36.2z"/>
						<g id="Group-37">
							<g id="Group-5">
								<g id="Clip-4">
								</g>
								<g id="Clip-Path: Clip-Path: Clip-Path: Fill-3" clip-path="url(#cp1)">
									<g id="Clip-Path: Clip-Path: Fill-3">
										<g id="Clip-Path: Fill-3">
											<path id="Fill-3" fill-rule="evenodd" class="s0" d="m607.7 129.7v93.8c-10.2 7-27.3 12.4-46.8 12.4-56.6 0-95.3-50.1-95.3-113.3 0-59.6 33.9-108.6 90.6-108.6 39.2 0 61.4 18.3 77.9 38.7h1.8v-42c-11.7-2.9-44.2-10.6-78.2-10.6-82.3 0-132.4 60-132.4 125.8 0 72 54.2 124.3 133.1 124.3 39.1 0 69.5-15 85.9-19.7v-100.8z"/>
										</g>
									</g>
								</g>
							</g>
							<path id="Fill-6" fill-rule="evenodd" class="s0" d="m668 35.6c-8.1 0-14.5-6.5-14.5-14.5 0-8 6.4-14.5 14.5-14.5 8 0 14.5 6.5 14.5 14.5 0 8-6.5 14.5-14.5 14.5zm11.9-14.5c0-6.7-5.3-12.1-11.9-12.1-6.6 0-11.9 5.4-11.9 12.1 0 6.7 5.3 12.1 11.9 12.1 6.6 0 11.9-5.4 11.9-12.1zm-16.9-7.3h5.1c3.3 0 5.4 1.3 5.4 4.3v0.1c0 2.2-1.2 3.3-2.9 3.9l3.7 6h-3.2l-3.5-5.5h-1.4v5.5h-3.2zm4.9 6.6c1.7 0 2.6-0.8 2.6-2.1v-0.1c0-1.5-1-2-2.6-2h-1.7v4.2z"/>
							<path id="Fill-8" class="s0" d="m774.8 4.3h11.7v40.8h69.2v-40.8h11.7v90.3h-11.7v-40h-69.2v40h-11.7z"/>
							<path id="Fill-10" fill-rule="evenodd" class="s0" d="m892.5 50.1v-1c0-25.7 23.3-45.9 59.3-45.9 35.9 0 59.3 20.2 59.3 45.6v1c0 25.5-23.4 45.9-58.9 45.9-36.4 0-59.7-20.4-59.7-45.6zm106.3-0.4v-1c0-20.1-17.2-36.5-47-36.5-30.1 0-47.1 15.4-47.1 36.7v1c0 21.7 19.4 36.6 47.5 36.6 28.7 0 46.6-15.2 46.6-36.8z"/>
							<path id="Fill-12" class="s0" d="m1058 13.4h-37.1v-9.1h85.9v9.1h-37.1v81.2h-11.7z"/>
							<path id="Fill-14" class="s0" d="m1129.1 4.3h75.9v9.1h-64.2v30.4h54.1v9.1h-54.1v32.6h67.2v9.1h-78.9z"/>
							<path id="Fill-16" class="s0" d="m1231.3 4.3h11.7v81.2h58.2v9.1h-69.9z"/>
							<path id="Fill-18" fill-rule="evenodd" class="s0" d="m1315.4 67.1h11.5c1.9 11.1 10.4 19.7 34.5 19.7 19.3 0 30.2-6.6 30.2-17.6 0-10.6-8-14-32.7-16.9-24.9-2.9-38.8-8.8-38.8-25 0-13.9 14.5-24.1 38.2-24.1 23.5 0 38.5 8.3 40.9 24.9h-10.7c-2.8-11.7-12.6-15.9-30.2-15.9-19 0-27.2 5.8-27.2 14.9 0 8 5.9 12.7 31.1 15.6 26.6 3.1 40.7 8.4 40.7 26.2 0 15.6-15.4 26.8-41.5 26.8-30.3 0-43.7-12.7-46-28.6z"/>
							<path id="Fill-20" fill-rule="evenodd" class="s0" d="m774.8 155.7h42.9c20.1 0 37 7.5 37 26.5v0.5c0 15.6-13.2 23.5-25.9 25.7l33.1 37.6h-14.1l-32.4-36.7h-28.9v36.7h-11.7zm43.7 44.7c15 0 24.5-6.1 24.5-17.6v-0.5c0-12.9-10.2-17.7-24.5-17.7h-32v35.8z"/>
							<path id="Fill-22" class="s0" d="m887.6 155.7h76v9.1h-64.2v30.4h54.1v9.1h-54.1v32.6h67.2v9.1h-79z"/>
							<path id="Fill-24" fill-rule="evenodd" class="s0" d="m986.6 218.4h11.5c1.9 11.1 10.3 19.7 34.4 19.7 19.3 0 30.2-6.5 30.2-17.5 0-10.6-8-14-32.7-16.9-24.9-2.9-38.7-8.9-38.7-25 0-13.9 14.4-24.1 38.2-24.1 23.4 0 38.5 8.3 40.9 24.8h-10.7c-2.8-11.7-12.7-15.9-30.2-15.9-19.1 0-27.2 5.8-27.2 14.9 0 8.1 5.9 12.8 31.1 15.7 26.5 3 40.6 8.3 40.6 26.1 0 15.7-15.4 26.9-41.5 26.9-30.2 0-43.6-12.8-45.9-28.7z"/>
							<path id="Fill-26" fill-rule="evenodd" class="s0" d="m1096.7 201.4v-1c0-25.6 23.4-45.8 59.3-45.8 36 0 59.4 20.2 59.4 45.5v1c0 25.6-23.4 46-59 46-36.3 0-59.7-20.4-59.7-45.7zm106.4-0.4v-1c0-20.1-17.3-36.5-47.1-36.5-30 0-47 15.4-47 36.7v1.1c0 21.7 19.4 36.5 47.4 36.5 28.8 0 46.7-15.1 46.7-36.8z"/>
							<path id="Fill-28" fill-rule="evenodd" class="s0" d="m1244.6 155.7h42.9c20.1 0 37 7.5 37 26.5v0.5c0 15.6-13.2 23.5-25.8 25.7l33 37.6h-14.1l-32.3-36.7h-28.9v36.7h-11.8zm43.7 44.7c15 0 24.5-6.1 24.5-17.6v-0.5c0-12.9-10.3-17.7-24.5-17.7h-31.9v35.8z"/>
							<path id="Fill-30" class="s0" d="m1383.2 164.8h-37.1v-9.1h85.9v9.1h-37.1v81.2h-11.7z"/>
							<path id="Fill-32" fill-rule="evenodd" class="s0" d="m1448.5 218.4h11.4c1.9 11.1 10.4 19.7 34.5 19.7 19.3 0 30.1-6.5 30.1-17.5 0-10.6-7.9-14-32.7-16.9-24.8-2.9-38.7-8.9-38.7-25 0-13.9 14.5-24.1 38.2-24.1 23.5 0 38.6 8.3 40.9 24.8h-10.7c-2.8-11.7-12.6-15.9-30.2-15.9-19 0-27.2 5.8-27.2 14.9 0 8.1 5.9 12.8 31.1 15.7 26.5 3 40.7 8.3 40.7 26.1 0 15.7-15.4 26.9-41.5 26.9-30.3 0-43.7-12.8-45.9-28.7z"/>
							<g id="Group-36">
								<g id="Clip-35">
								</g>
								<g id="Clip-Path: Clip-Path: Clip-Path: Fill-34" clip-path="url(#cp2)">
									<g id="Clip-Path: Clip-Path: Fill-34">
										<g id="Clip-Path: Fill-34">
											<path id="Fill-34" fill-rule="evenodd" class="s0" d="m1515.3 82.2c-6.7 7.5-16.4 13.3-29.5 13.3-18.6 0-30.7-9-30.7-24.2 0-14.4 11.1-22.2 22.6-26.5-6-5.3-10-11.6-10-20.1 0-13.9 11.4-21.7 24.1-21.7 13.7 0 22.9 8.8 22.9 21 0 8.9-7.1 17.7-20.8 23.1l21.9 22.2 14.2-21.3h9.7l-18.1 27.3 19 19.3h-13.3zm-5.4-5.4l-26-26.7c-10.7 4-18.5 9.9-18.5 20.6 0 9.8 7.2 16.1 20.6 16.1 10.6 0 18.5-4.2 23.9-10zm-4.6-53.1c0-6.9-5-12.4-13.7-12.4-8 0-14.4 4.6-14.4 13.5 0 6.9 4.6 12.2 10.7 17.1 12.7-5.4 17.4-11 17.4-18.2z"/>
										</g>
									</g>
								</g>
							</g>
						</g>
					</g>
				</g>
			</g>
		</g>
	</g>
</svg>