<svg version="1.2" xmlns="http://www.w3.org/2000/svg" viewBox="0 0 1531 341" width="1531" height="341">
	<title>Wyndham_Hotels_&amp;_Resorts_logo-svg</title>
	<style>
		.s0 { fill: #016fb7 } 
	</style>
	<g id="layer1">
		<path id="path5574" fill-rule="evenodd" class="s0" d="m0.2 245.9c0 0 207.9-64.8 763.8-64.8 559.9 0 766.8 64.4 766.8 64.4 0 0-253.2-44.2-766.8-44.2-513.7 0-763.8 44.6-763.8 44.6zm323 33.6h10.5v59.6h-10.5v-25.1h-28.4v25.1h-10.5v-59.6h10.5v24.8h28.4zm30 29.9v-0.1c0-16.8 12.9-30.8 31.3-30.8 18.3 0 31 13.8 31 30.6v0.2c0 16.7-12.9 30.8-31.2 30.8-18.3 0-31.1-13.9-31.1-30.7zm51.4 0v-0.1c0-11.6-8.5-21.2-20.3-21.2-11.9 0-20.1 9.4-20.1 21v0.2c0 11.5 8.4 21.1 20.3 21.1 11.8 0 20.1-9.4 20.1-21zm41.9-20.2h-18.9v-9.7h48.3v9.7h-18.9v49.8h-10.5zm47.3-9.6h44.2v9.3h-33.7v15.5h29.9v9.4h-29.9v15.9h34.2v9.4h-44.7zm63.9 0h10.5v50h31.3v9.6h-41.8zm55.5 50.9l6.3-7.5c5.8 4.9 11.5 7.7 18.9 7.7 6.4 0 10.5-3.1 10.5-7.5v-0.1c0-4.3-2.4-6.6-13.4-9.1-12.7-3.1-19.9-6.9-19.9-17.8v-0.2c0-10.2 8.5-17.3 20.4-17.3 8.7 0 15.6 2.7 21.6 7.5l-5.6 7.9c-5.4-4-10.7-6.1-16.2-6.1-6.1 0-9.7 3.2-9.7 7.1v0.1c0 4.6 2.7 6.7 14.2 9.4 12.6 3.1 19.1 7.6 19.1 17.4v0.2c0 11.1-8.8 17.8-21.3 17.8-9.1 0-17.7-3.2-24.9-9.5zm131.1 1.7c-5.1 4.8-11 7.8-18.2 7.8-11.2 0-19.5-6.7-19.5-17v-0.2c0-7.7 4.5-13.2 12.7-16.7-3.4-4.3-5-8.1-5-12.4v-0.2c0-7.9 6.5-14.9 17.2-14.9 9.4 0 15.8 6.4 15.8 14.4v0.1c0 7.8-5.2 12.5-13.1 15.5l10.2 10.4c2.3-3.4 4.4-7.3 6.4-11.5l7.9 4.2c-2.4 4.7-5 9.4-8.1 13.5l9.5 9.5-7.9 5.6zm-5.9-6.1l-13.3-13.5c-5.5 2.4-7.9 6-7.9 9.9v0.1c0 5 4.1 8.7 9.9 8.7 4.1 0 7.9-2 11.3-5.2zm-0.4-32.4v-0.2c0-4-2.8-6.7-6.7-6.7-4.2 0-7.1 3-7.1 7.2v0.1c0 3 1.1 5.2 4.5 8.9 6.1-2.2 9.3-5.1 9.3-9.3zm71.4-14.1h26.6c7.5 0 13.4 2.2 17.2 5.9 3.2 3.3 4.9 7.7 4.9 12.9v0.1c0 9.8-5.8 15.7-14.1 18.1l16.1 22.5h-12.4l-14.7-20.7h-13.1v20.7h-10.5zm25.8 29.5c7.5 0 12.3-3.9 12.3-9.9v-0.2c0-6.3-4.6-9.8-12.4-9.8h-15.2v20zm42.6-29.6h44.2v9.4h-33.7v15.5h29.9v9.3h-29.9v16h34.1v9.4h-44.6zm59.9 50.9l6.3-7.5c5.7 4.9 11.5 7.7 18.8 7.7 6.5 0 10.6-3 10.6-7.5v-0.1c0-4.3-2.4-6.6-13.5-9.1-12.7-3.1-19.8-6.8-19.8-17.8v-0.2c0-10.2 8.5-17.2 20.3-17.2 8.7 0 15.6 2.6 21.6 7.5l-5.6 7.9c-5.3-4-10.7-6.2-16.2-6.2-6.1 0-9.7 3.2-9.7 7.1v0.2c0 4.6 2.8 6.6 14.3 9.3 12.6 3.1 19 7.6 19 17.5v0.1c0 11.2-8.7 17.8-21.3 17.8-9.1 0-17.7-3.1-24.8-9.5zm62.7-21v-0.1c0-16.8 12.9-30.8 31.2-30.8 18.3 0 31.1 13.8 31.1 30.6v0.2c0 16.7-12.9 30.8-31.3 30.8-18.3 0-31-13.9-31-30.7zm51.3 0v-0.1c0-11.6-8.4-21.2-20.3-21.2-11.8 0-20.1 9.4-20.1 21v0.2c0 11.5 8.5 21.1 20.3 21.1 11.9 0 20.1-9.4 20.1-21zm30.5-29.9h26.6c7.5 0 13.4 2.2 17.2 5.9 3.1 3.3 4.9 7.7 4.9 12.9v0.1c0 9.8-5.9 15.7-14.1 18.1l16.1 22.5h-12.5l-14.6-20.7h-13.1v20.7h-10.5zm25.8 29.6c7.5 0 12.3-4 12.3-10v-0.2c0-6.3-4.6-9.8-12.4-9.8h-15.2v20zm57-19.9h-18.9v-9.6h48.3v9.6h-18.9v49.9h-10.5zm42 41.2l6.4-7.5c5.7 4.9 11.4 7.7 18.8 7.7 6.4 0 10.5-3 10.5-7.4v-0.2c0-4.3-2.3-6.5-13.4-9.1-12.7-3.1-19.9-6.8-19.9-17.8v-0.1c0-10.3 8.6-17.3 20.4-17.3 8.7 0 15.6 2.6 21.6 7.5l-5.6 7.9c-5.4-4-10.7-6.1-16.2-6.1-6.1 0-9.7 3.1-9.7 7v0.2c0 4.6 2.7 6.6 14.2 9.3 12.6 3.1 19.1 7.6 19.1 17.5v0.1c0 11.2-8.8 17.8-21.3 17.8-9.1 0-17.7-3.1-24.9-9.5zm-1052.7-329.1h29.4l36.8 114.4 38-114.9h22.9l38 114.9 36.8-114.4h28.5l-53.9 155.4h-23.3l-38-110.9-37.9 110.9h-23.4zm299.2 93.4l-61.4-93.4h32l43.3 68.3 43.7-68.3h31.1l-61.4 92.8v61.5h-27.3zm103.7-93.5h25.1l82.8 106.7v-106.7h26.7v154.3h-22.8l-85.1-109.8v109.8h-26.7zm169.9 0h57.6c48.5 0 82.1 33.3 82.1 76.7v0.5c0 43.4-33.6 77.1-82.1 77.1h-57.6zm57.6 129.6c32.4 0 53.6-21.8 53.6-52v-0.4c0-30.2-21.2-52.5-53.6-52.5h-30.5v104.9zm110.6-129.6h27.1v64.1h73.7v-64.1h27.2v154.3h-27.2v-65h-73.7v65h-27.1zm218-1.1h25.2l67.9 155.4h-28.7l-15.6-37.2h-73.1l-15.9 37.2h-27.8zm38.9 94.1l-26.7-61.7-26.5 61.7zm71.9-93h28.9l47 73 47-73h28.9v154.3h-27.1v-110.6l-48.8 72.7h-0.8l-48.4-72.3v110.2h-26.7z"/>
	</g>
</svg>